# Blender v2.79 (sub 0) OBJ File: 'skydome.blend'
# www.blender.org
mtllib skydome.mtl
o Sphere
v 0.324212 10.131269 -4.360491
v 0.324212 4.106798 -10.384962
v 0.324212 -0.153147 -11.232318
v 1.426767 10.131269 -4.215337
v 2.361467 7.718204 -7.703687
v 2.986015 4.106798 -10.034529
v 3.205327 -0.153147 -10.853012
v 2.454184 10.131269 -3.789767
v 4.259887 7.718204 -6.917336
v 5.466419 4.106798 -9.007112
v 5.890098 -0.153147 -9.740943
v 3.336447 10.131269 -3.112782
v 5.890097 7.718204 -5.666431
v 7.596391 4.106798 -7.372726
v 8.195561 -0.153147 -7.971897
v 4.013432 10.131269 -2.230519
v 7.141000 7.718204 -4.036222
v 9.230775 4.106798 -5.242754
v 9.964605 -0.153147 -5.666432
v 4.439002 10.131269 -1.203102
v 7.927351 7.718204 -2.137803
v 10.258192 4.106798 -2.762350
v 11.076674 -0.153147 -2.981661
v 4.584156 10.131269 -0.100548
v 8.195560 7.718204 -0.100548
v 10.608624 4.106798 -0.100548
v 11.455979 -0.153147 -0.100548
v 4.439002 10.131269 1.002007
v 7.927350 7.718204 1.936707
v 10.258191 4.106798 2.561254
v 11.076674 -0.153147 2.780565
v 4.013432 10.131269 2.029424
v 7.140998 7.718204 3.835126
v 9.230773 4.106798 5.041658
v 9.964604 -0.153147 5.465335
v 3.336447 10.131269 2.911688
v 5.890095 7.718204 5.465335
v 7.596388 4.106798 7.171629
v 8.195559 -0.153147 7.770800
v 2.454184 10.131269 3.588672
v 4.259885 7.718204 6.716238
v 5.466417 4.106798 8.806013
v 5.890094 -0.153147 9.539845
v 1.426766 10.131269 4.014242
v 2.361466 7.718204 7.502589
v 2.986013 4.106798 9.833429
v 3.205324 -0.153147 10.651913
v 0.324212 10.131269 4.159396
v 0.324212 7.718204 7.770798
v 0.324211 4.106798 10.183863
v 0.324211 -0.153147 11.031217
v -0.778343 10.131269 4.014242
v -1.713042 7.718204 7.502589
v -2.337590 4.106798 9.833429
v -2.556901 -0.153147 10.651910
v -1.805760 10.131269 3.588671
v -3.611461 7.718204 6.716238
v -4.817994 4.106798 8.806012
v -5.241671 -0.153147 9.539843
v -2.688023 10.131269 2.911687
v -5.241670 7.718204 5.465334
v -6.947965 4.106798 7.171628
v -7.547135 -0.153147 7.770798
v -3.365007 10.131269 2.029423
v -6.492573 7.718204 3.835125
v -8.582350 4.106798 5.041656
v -9.316179 -0.153147 5.465334
v -3.790577 10.131269 1.002006
v -7.278924 7.718204 1.936706
v -9.609767 4.106798 2.561252
v -10.428248 -0.153147 2.780565
v -3.935731 10.131269 -0.100549
v -7.547133 7.718204 -0.100548
v -9.960199 4.106798 -0.100550
v -10.807553 -0.153147 -0.100548
v -3.790577 10.131269 -1.203104
v -7.278924 7.718204 -2.137803
v -9.609766 4.106798 -2.762351
v -10.428247 -0.153147 -2.981661
v -3.365006 10.131269 -2.230520
v -6.492573 7.718204 -4.036222
v -8.582349 4.106798 -5.242755
v -9.316179 -0.153147 -5.666431
v -2.688022 10.131269 -3.112783
v -5.241669 7.718204 -5.666430
v -6.947964 4.106798 -7.372726
v -7.547134 -0.153147 -7.971895
v -1.805759 10.131269 -3.789767
v -3.611459 7.718204 -6.917333
v -4.817992 4.106798 -9.007111
v -5.241669 -0.153147 -9.740940
v -0.778341 10.131269 -4.215337
v -1.713041 7.718204 -7.703684
v -2.337588 4.106798 -10.034528
v -2.556900 -0.153147 -10.853007
v 0.324212 10.978624 -0.100546
v 0.324213 7.718204 -7.971893
vt 0.835376 0.543535
vt 0.817833 0.658058
vt 0.706082 0.586898
vt 0.721711 0.529656
vt 0.640219 0.520309
vt 0.630178 0.555907
vt 0.563195 0.527732
vt 0.568226 0.510431
vt 0.500000 0.499975
vt 0.679670 0.639194
vt 0.611266 0.587694
vt 0.553858 0.543143
vt 0.784493 0.769712
vt 0.637515 0.680951
vt 0.584771 0.613502
vt 0.540850 0.555611
vt 0.707365 0.903742
vt 0.627995 0.964644
vt 0.585989 0.710375
vt 0.552499 0.631574
vt 0.525058 0.564288
vt 0.516649 0.640677
vt 0.507559 0.568582
vt 0.528603 0.725460
vt 0.547412 1.000523
vt 0.469269 0.725180
vt 0.479666 0.640192
vt 0.489544 0.568200
vt 0.458191 1.000523
vt 0.472242 0.563169
vt 0.370344 0.968266
vt 0.412029 0.709553
vt 0.444068 0.630151
vt 0.297942 0.894054
vt 0.360784 0.679644
vt 0.412281 0.611239
vt 0.456832 0.553832
vt 0.319025 0.637491
vt 0.386472 0.584745
vt 0.444363 0.540824
vt 0.214084 0.761145
vt 0.289599 0.585966
vt 0.368400 0.552474
vt 0.435686 0.525033
vt 0.173647 0.640040
vt 0.162530 0.544595
vt 0.274510 0.528580
vt 0.359296 0.516624
vt 0.431392 0.507533
vt 0.164274 0.455889
vt 0.274789 0.469244
vt 0.359781 0.479640
vt 0.431774 0.489519
vt 0.290418 0.412002
vt 0.369822 0.444042
vt 0.436805 0.472217
vt 0.176873 0.364975
vt 0.320330 0.360756
vt 0.388734 0.412256
vt 0.446142 0.456807
vt 0.204342 0.263556
vt 0.247138 0.164770
vt 0.362485 0.318999
vt 0.415229 0.386447
vt 0.459150 0.444339
vt 0.447501 0.368376
vt 0.474942 0.435662
vt 0.408720 0.301481
vt 0.317717 0.084820
vt 0.466105 0.286395
vt 0.483351 0.359273
vt 0.492441 0.431368
vt 0.409499 0.013432
vt 0.510456 0.431749
vt 0.587340 0.009464
vt 0.537786 0.282707
vt 0.520334 0.359758
vt 0.701469 0.087633
vt 0.600317 0.299657
vt 0.555932 0.369799
vt 0.527758 0.436780
vt 0.644507 0.321629
vt 0.587719 0.388710
vt 0.543168 0.446118
vt 0.765018 0.178471
vt 0.680975 0.362459
vt 0.613528 0.415205
vt 0.555637 0.459126
vt 0.801709 0.276068
vt 0.823346 0.366167
vt 0.707976 0.414314
vt 0.631600 0.447476
vt 0.564314 0.474917
vt 0.834223 0.455685
vt 0.723064 0.471701
vt 0.640704 0.483325
vt 0.568608 0.492416
vn 0.0000 -0.1951 0.9808
vn -0.2538 -0.1951 0.9474
vn -0.2397 -0.3771 0.8946
vn 0.0000 -0.3771 0.9262
vn 0.0000 -0.6991 0.7150
vn -0.1851 -0.6991 0.6907
vn -0.1026 -0.9181 0.3829
vn 0.0000 -0.9181 0.3964
vn 0.0000 -1.0000 0.0000
vn -0.4631 -0.3771 0.8021
vn -0.3575 -0.6991 0.6192
vn -0.1982 -0.9181 0.3433
vn -0.4904 -0.1951 0.8494
vn -0.6549 -0.3771 0.6549
vn -0.5056 -0.6991 0.5056
vn -0.2803 -0.9181 0.2803
vn -0.6935 -0.1951 0.6935
vn -0.8494 -0.1951 0.4904
vn -0.8021 -0.3771 0.4631
vn -0.6192 -0.6991 0.3575
vn -0.3433 -0.9181 0.1982
vn -0.6907 -0.6991 0.1851
vn -0.3829 -0.9181 0.1026
vn -0.8946 -0.3771 0.2397
vn -0.9474 -0.1951 0.2538
vn -0.9262 -0.3771 0.0000
vn -0.7150 -0.6991 0.0000
vn -0.3964 -0.9181 0.0000
vn -0.9808 -0.1951 0.0000
vn -0.3829 -0.9181 -0.1026
vn -0.9474 -0.1951 -0.2538
vn -0.8946 -0.3771 -0.2397
vn -0.6907 -0.6991 -0.1851
vn -0.8494 -0.1951 -0.4904
vn -0.8021 -0.3771 -0.4631
vn -0.6192 -0.6991 -0.3575
vn -0.3433 -0.9181 -0.1982
vn -0.6549 -0.3771 -0.6549
vn -0.5056 -0.6991 -0.5056
vn -0.2803 -0.9181 -0.2803
vn -0.6935 -0.1951 -0.6935
vn -0.4631 -0.3771 -0.8021
vn -0.3575 -0.6991 -0.6192
vn -0.1982 -0.9181 -0.3433
vn -0.4904 -0.1951 -0.8494
vn -0.2538 -0.1951 -0.9474
vn -0.2397 -0.3771 -0.8946
vn -0.1851 -0.6991 -0.6907
vn -0.1026 -0.9181 -0.3829
vn 0.0000 -0.1951 -0.9808
vn 0.0000 -0.3771 -0.9262
vn 0.0000 -0.6991 -0.7150
vn 0.0000 -0.9181 -0.3964
vn 0.2397 -0.3771 -0.8946
vn 0.1851 -0.6991 -0.6907
vn 0.1026 -0.9181 -0.3829
vn 0.2538 -0.1951 -0.9474
vn 0.4631 -0.3771 -0.8021
vn 0.3575 -0.6991 -0.6192
vn 0.1982 -0.9181 -0.3433
vn 0.4904 -0.1951 -0.8494
vn 0.6935 -0.1951 -0.6935
vn 0.6549 -0.3771 -0.6549
vn 0.5056 -0.6991 -0.5056
vn 0.2803 -0.9181 -0.2803
vn 0.6192 -0.6991 -0.3575
vn 0.3433 -0.9181 -0.1982
vn 0.8021 -0.3771 -0.4631
vn 0.8494 -0.1951 -0.4904
vn 0.8946 -0.3771 -0.2397
vn 0.6907 -0.6991 -0.1851
vn 0.3829 -0.9181 -0.1026
vn 0.9474 -0.1951 -0.2538
vn 0.3964 -0.9181 0.0000
vn 0.9808 -0.1951 0.0000
vn 0.9262 -0.3771 0.0000
vn 0.7150 -0.6991 0.0000
vn 0.9474 -0.1951 0.2538
vn 0.8946 -0.3771 0.2397
vn 0.6907 -0.6991 0.1851
vn 0.3829 -0.9181 0.1026
vn 0.8021 -0.3771 0.4631
vn 0.6192 -0.6991 0.3575
vn 0.3433 -0.9181 0.1982
vn 0.8494 -0.1951 0.4904
vn 0.6549 -0.3771 0.6549
vn 0.5056 -0.6991 0.5056
vn 0.2803 -0.9181 0.2803
vn 0.6935 -0.1951 0.6935
vn 0.4904 -0.1951 0.8494
vn 0.4631 -0.3771 0.8021
vn 0.3575 -0.6991 0.6192
vn 0.1982 -0.9181 0.3433
vn 0.2538 -0.1951 0.9474
vn 0.2397 -0.3771 0.8946
vn 0.1851 -0.6991 0.6907
vn 0.1026 -0.9181 0.3829
usemtl Material.001
s 1
f 3/1/1 7/2/2 6/3/3 2/4/4
f 97/5/5 5/6/6 4/7/7 1/8/8
f 2/4/4 6/3/3 5/6/6 97/5/5
f 1/8/8 4/7/7 96/9/9
f 6/3/3 10/10/10 9/11/11 5/6/6
f 4/7/7 8/12/12 96/9/9
f 7/2/2 11/13/13 10/10/10 6/3/3
f 5/6/6 9/11/11 8/12/12 4/7/7
f 10/10/10 14/14/14 13/15/15 9/11/11
f 8/12/12 12/16/16 96/9/9
f 11/13/13 15/17/17 14/14/14 10/10/10
f 9/11/11 13/15/15 12/16/16 8/12/12
f 15/17/17 19/18/18 18/19/19 14/14/14
f 13/15/15 17/20/20 16/21/21 12/16/16
f 14/14/14 18/19/19 17/20/20 13/15/15
f 12/16/16 16/21/21 96/9/9
f 17/20/20 21/22/22 20/23/23 16/21/21
f 18/19/19 22/24/24 21/22/22 17/20/20
f 16/21/21 20/23/23 96/9/9
f 19/18/18 23/25/25 22/24/24 18/19/19
f 22/24/24 26/26/26 25/27/27 21/22/22
f 20/23/23 24/28/28 96/9/9
f 23/25/25 27/29/29 26/26/26 22/24/24
f 21/22/22 25/27/27 24/28/28 20/23/23
f 24/28/28 28/30/30 96/9/9
f 27/29/29 31/31/31 30/32/32 26/26/26
f 25/27/27 29/33/33 28/30/30 24/28/28
f 26/26/26 30/32/32 29/33/33 25/27/27
f 31/31/31 35/34/34 34/35/35 30/32/32
f 29/33/33 33/36/36 32/37/37 28/30/30
f 30/32/32 34/35/35 33/36/36 29/33/33
f 28/30/30 32/37/37 96/9/9
f 34/35/35 38/38/38 37/39/39 33/36/36
f 32/37/37 36/40/40 96/9/9
f 35/34/34 39/41/41 38/38/38 34/35/35
f 33/36/36 37/39/39 36/40/40 32/37/37
f 38/38/38 42/42/42 41/43/43 37/39/39
f 36/40/40 40/44/44 96/9/9
f 39/41/41 43/45/45 42/42/42 38/38/38
f 37/39/39 41/43/43 40/44/44 36/40/40
f 43/45/45 47/46/46 46/47/47 42/42/42
f 41/43/43 45/48/48 44/49/49 40/44/44
f 42/42/42 46/47/47 45/48/48 41/43/43
f 40/44/44 44/49/49 96/9/9
f 47/46/46 51/50/50 50/51/51 46/47/47
f 45/48/48 49/52/52 48/53/53 44/49/49
f 46/47/47 50/51/51 49/52/52 45/48/48
f 44/49/49 48/53/53 96/9/9
f 50/51/51 54/54/54 53/55/55 49/52/52
f 48/53/53 52/56/56 96/9/9
f 51/50/50 55/57/57 54/54/54 50/51/51
f 49/52/52 53/55/55 52/56/56 48/53/53
f 54/54/54 58/58/58 57/59/59 53/55/55
f 52/56/56 56/60/60 96/9/9
f 55/57/57 59/61/61 58/58/58 54/54/54
f 53/55/55 57/59/59 56/60/60 52/56/56
f 59/61/61 63/62/62 62/63/63 58/58/58
f 57/59/59 61/64/64 60/65/65 56/60/60
f 58/58/58 62/63/63 61/64/64 57/59/59
f 56/60/60 60/65/65 96/9/9
f 61/64/64 65/66/66 64/67/67 60/65/65
f 62/63/63 66/68/68 65/66/66 61/64/64
f 60/65/65 64/67/67 96/9/9
f 63/62/62 67/69/69 66/68/68 62/63/63
f 66/68/68 70/70/70 69/71/71 65/66/66
f 64/67/67 68/72/72 96/9/9
f 67/69/69 71/73/73 70/70/70 66/68/68
f 65/66/66 69/71/71 68/72/72 64/67/67
f 68/72/72 72/74/74 96/9/9
f 71/73/73 75/75/75 74/76/76 70/70/70
f 69/71/71 73/77/77 72/74/74 68/72/72
f 70/70/70 74/76/76 73/77/77 69/71/71
f 75/75/75 79/78/78 78/79/79 74/76/76
f 73/77/77 77/80/80 76/81/81 72/74/74
f 74/76/76 78/79/79 77/80/80 73/77/77
f 72/74/74 76/81/81 96/9/9
f 78/79/79 82/82/82 81/83/83 77/80/80
f 76/81/81 80/84/84 96/9/9
f 79/78/78 83/85/85 82/82/82 78/79/79
f 77/80/80 81/83/83 80/84/84 76/81/81
f 82/82/82 86/86/86 85/87/87 81/83/83
f 80/84/84 84/88/88 96/9/9
f 83/85/85 87/89/89 86/86/86 82/82/82
f 81/83/83 85/87/87 84/88/88 80/84/84
f 87/89/89 91/90/90 90/91/91 86/86/86
f 85/87/87 89/92/92 88/93/93 84/88/88
f 86/86/86 90/91/91 89/92/92 85/87/87
f 84/88/88 88/93/93 96/9/9
f 91/90/90 95/94/94 94/95/95 90/91/91
f 89/92/92 93/96/96 92/97/97 88/93/93
f 90/91/91 94/95/95 93/96/96 89/92/92
f 88/93/93 92/97/97 96/9/9
f 94/95/95 2/4/4 97/5/5 93/96/96
f 92/97/97 1/8/8 96/9/9
f 95/94/94 3/1/1 2/4/4 94/95/95
f 93/96/96 97/5/5 1/8/8 92/97/97
